<svg xmlns="http://www.w3.org/2000/svg" xmlns:v="https://svgstorm.com"
viewBox = "275 249 450 450"
width="1000"
height="1000">
<g fill="None" fill-opacity="0.0" stroke="#000000" stroke-opacity="0.00" stroke-width="0.3"><path d="
M 510.00 266.00 
C 515.31 274.39 514.92 286.13 518.00 296.00 C 521.08 305.87 521.64 318.79 534.00 318.00 C 546.36 317.21 553.47 324.46 564.07 325.93 C 574.68 327.40 581.96 333.03 591.08 336.92 C 600.19 340.81 606.92 346.01 614.75 351.25 C 622.58 356.50 629.41 362.17 636.25 368.75 C 643.09 375.33 648.56 381.18 654.75 388.25 C 660.94 395.32 664.85 403.04 669.92 411.08 C 675.00 419.12 679.34 426.95 682.78 436.22 C 686.21 445.50 689.65 454.89 691.98 465.02 C 694.30 475.16 696.15 488.26 697.00 499.00
C 700.05 508.53 698.12 516.91 696.00 526.00
C 691.58 590.97 654.51 645.42 596.92 678.92 C 539.34 712.43 455.71 711.27 398.30 675.70 C 340.90 640.12 309.74 583.21 304.00 518.00
C 304.10 518.22 301.24 516.29 302.00 513.00 C 302.76 509.71 302.75 507.28 302.00 504.00 C 301.25 500.72 304.06 498.84 304.00 499.00
C 304.96 484.83 307.97 467.64 311.33 454.33 C 314.69 441.02 320.77 429.49 326.77 417.77 C 332.77 406.05 339.32 396.56 347.75 386.75 C 356.18 376.95 363.87 369.04 373.70 360.70 C 383.52 352.35 393.75 346.77 404.70 339.70 C 415.64 332.62 428.92 329.06 441.07 324.07 C 453.22 319.09 473.69 322.70 478.00 309.00 C 482.31 295.30 485.44 281.02 489.00 267.00
C 490.00 263.07 493.61 264.00 499.00 264.00 C 504.39 264.00 508.29 263.29 510.00 266.00 Z"/>
</g>
<g fill="None" fill-opacity="0.0" stroke="#000000" stroke-opacity="0.45" stroke-width="0.3"><path d="
M 489.00 267.00 
C 490.81 265.08 507.27 264.60 510.00 266.00
C 508.29 263.29 504.39 264.00 499.00 264.00 C 493.61 264.00 490.00 263.07 489.00 267.00 Z"/>
</g>
<g fill="None" fill-opacity="0.0" stroke="#000000" stroke-opacity="1.00" stroke-width="0.3"><path d="
M 489.00 267.00 
C 485.44 281.02 482.31 295.30 478.00 309.00 C 473.69 322.70 453.22 319.09 441.07 324.07 C 428.92 329.06 415.64 332.62 404.70 339.70 C 393.75 346.77 383.52 352.35 373.70 360.70 C 363.87 369.04 356.18 376.95 347.75 386.75 C 339.32 396.56 332.77 406.05 326.77 417.77 C 320.77 429.49 314.69 441.02 311.33 454.33 C 307.97 467.64 304.96 484.83 304.00 499.00
C 303.59 505.08 303.47 511.93 304.00 518.00
C 309.74 583.21 340.90 640.12 398.30 675.70 C 455.71 711.27 539.34 712.43 596.92 678.92 C 654.51 645.42 691.58 590.97 696.00 526.00
C 696.59 517.30 697.72 508.05 697.00 499.00
C 696.15 488.26 694.30 475.16 691.98 465.02 C 689.65 454.89 686.21 445.50 682.78 436.22 C 679.34 426.95 675.00 419.12 669.92 411.08 C 664.85 403.04 660.94 395.32 654.75 388.25 C 648.56 381.18 643.09 375.33 636.25 368.75 C 629.41 362.17 622.58 356.50 614.75 351.25 C 606.92 346.01 600.19 340.81 591.08 336.92 C 581.96 333.03 574.68 327.40 564.07 325.93 C 553.47 324.46 546.36 317.21 534.00 318.00 C 521.64 318.79 521.08 305.87 518.00 296.00 C 514.92 286.13 515.31 274.39 510.00 266.00
C 507.27 264.60 490.81 265.08 489.00 267.00
M 509.00 681.00 
C 501.37 681.00 493.62 681.41 486.00 681.00
C 474.02 680.35 461.11 677.40 449.98 674.03 C 438.84 670.65 430.15 666.49 419.77 661.23 C 409.39 655.96 418.35 640.81 420.00 630.00 C 421.65 619.19 426.86 607.17 428.93 595.93 C 430.99 584.68 435.10 572.77 437.33 561.33 C 439.56 549.89 444.41 539.25 446.92 527.92 C 449.43 516.59 452.19 504.38 455.00 493.00 C 457.81 481.61 461.49 470.48 463.93 458.93 C 466.36 447.38 469.45 436.07 472.78 424.78 C 476.10 413.49 477.70 401.28 481.00 390.00 C 484.30 378.71 487.18 367.40 489.99 355.99 C 492.80 344.58 495.59 332.51 500.00 322.00
C 516.62 376.52 530.18 433.23 544.78 489.22 C 559.37 545.22 573.34 601.89 588.00 658.00
C 563.55 671.21 537.33 680.54 509.00 681.00
M 328.00 526.00 
C 327.14 517.16 326.35 506.56 327.00 497.00
C 332.14 421.53 394.30 351.25 470.00 341.00
C 445.54 441.87 418.77 542.19 394.00 643.00
C 380.94 636.94 372.31 624.68 362.75 613.25 C 353.18 601.83 345.84 589.26 340.03 574.98 C 334.21 560.69 327.96 542.32 328.00 526.00
M 673.00 494.00 
C 673.92 501.57 674.45 510.71 674.00 519.00
C 672.17 552.78 659.45 581.10 642.00 609.00
C 639.32 613.28 636.38 616.34 633.00 620.00
C 625.83 627.75 623.76 632.58 614.75 639.75 C 605.74 646.93 604.12 629.79 602.07 620.93 C 600.02 612.06 596.10 600.52 594.07 590.93 C 592.04 581.33 588.17 570.90 586.07 560.93 C 583.98 550.95 581.14 540.68 578.22 530.78 C 575.31 520.88 573.45 510.37 570.67 500.33 C 567.90 490.29 565.82 480.12 563.02 469.98 C 560.23 459.83 557.65 450.08 555.22 439.78 C 552.79 429.47 549.87 420.35 547.07 409.93 C 544.27 399.51 542.64 389.40 539.22 378.78 C 535.80 368.15 535.45 359.70 531.68 348.32 C 527.91 336.94 545.60 343.17 553.68 346.32 C 561.75 349.47 573.01 352.36 580.70 357.31 C 588.38 362.25 597.26 365.77 604.23 371.77 C 611.20 377.77 618.40 382.36 624.75 389.25 C 631.11 396.13 636.42 402.47 641.75 410.25 C 647.08 418.02 651.30 425.42 655.92 434.08 C 660.55 442.73 663.51 451.48 666.78 461.22 C 670.05 470.96 671.72 483.39 673.00 494.00 Z"/>
</g>
<g fill="None" fill-opacity="0.0" stroke="#000000" stroke-opacity="0.02" stroke-width="0.3"><path d="
M 486.00 681.00 
C 489.46 680.48 487.79 680.61 493.00 679.00 C 498.21 677.39 507.74 680.68 509.00 681.00
C 537.33 680.54 563.55 671.21 588.00 658.00
C 573.34 601.89 559.37 545.22 544.78 489.22 C 530.18 433.23 516.62 376.52 500.00 322.00
C 495.59 332.51 492.80 344.58 489.99 355.99 C 487.18 367.40 484.30 378.71 481.00 390.00 C 477.70 401.28 476.10 413.49 472.78 424.78 C 469.45 436.07 466.36 447.38 463.93 458.93 C 461.49 470.48 457.81 481.61 455.00 493.00 C 452.19 504.38 449.43 516.59 446.92 527.92 C 444.41 539.25 439.56 549.89 437.33 561.33 C 435.10 572.77 430.99 584.68 428.93 595.93 C 426.86 607.17 421.65 619.19 420.00 630.00 C 418.35 640.81 409.39 655.96 419.77 661.23 C 430.15 666.49 438.84 670.65 449.98 674.03 C 461.11 677.40 474.02 680.35 486.00 681.00 Z"/>
</g>
<g fill="None" fill-opacity="0.0" stroke="#000000" stroke-opacity="0.02" stroke-width="0.3"><path d="
M 327.00 497.00 
C 328.14 504.91 328.91 516.61 328.00 526.00
C 327.96 542.32 334.21 560.69 340.03 574.98 C 345.84 589.26 353.18 601.83 362.75 613.25 C 372.31 624.68 380.94 636.94 394.00 643.00
C 418.77 542.19 445.54 441.87 470.00 341.00
C 394.30 351.25 332.14 421.53 327.00 497.00 Z"/>
</g>
<g fill="None" fill-opacity="0.0" stroke="#000000" stroke-opacity="0.02" stroke-width="0.3"><path d="
M 633.00 620.00 
C 634.94 616.69 639.53 611.27 642.00 609.00
C 659.45 581.10 672.17 552.78 674.00 519.00
C 673.86 519.44 672.60 520.79 672.00 521.00
C 672.66 512.17 670.67 502.01 673.00 494.00
C 671.72 483.39 670.05 470.96 666.78 461.22 C 663.51 451.48 660.55 442.73 655.92 434.08 C 651.30 425.42 647.08 418.02 641.75 410.25 C 636.42 402.47 631.11 396.13 624.75 389.25 C 618.40 382.36 611.20 377.77 604.23 371.77 C 597.26 365.77 588.38 362.25 580.70 357.31 C 573.01 352.36 561.75 349.47 553.68 346.32 C 545.60 343.17 527.91 336.94 531.68 348.32 C 535.45 359.70 535.80 368.15 539.22 378.78 C 542.64 389.40 544.27 399.51 547.07 409.93 C 549.87 420.35 552.79 429.47 555.22 439.78 C 557.65 450.08 560.23 459.83 563.02 469.98 C 565.82 480.12 567.90 490.29 570.67 500.33 C 573.45 510.37 575.31 520.88 578.22 530.78 C 581.14 540.68 583.98 550.95 586.07 560.93 C 588.17 570.90 592.04 581.33 594.07 590.93 C 596.10 600.52 600.02 612.06 602.07 620.93 C 604.12 629.79 605.74 646.93 614.75 639.75 C 623.76 632.58 625.83 627.75 633.00 620.00 Z"/>
</g>
<g fill="None" fill-opacity="0.0" stroke="#000000" stroke-opacity="0.44" stroke-width="0.3"><path d="
674.00 519.00 
C 674.45 510.71 673.92 501.57 673.00 494.00
C 670.67 502.01 672.66 512.17 672.00 521.00
C 672.60 520.79 673.86 519.44 674.00 519.00 Z"/>
</g>
<g fill="None" fill-opacity="0.0" stroke="#000000" stroke-opacity="0.36" stroke-width="0.3"><path d="
M 328.00 526.00 
C 328.91 516.61 328.14 504.91 327.00 497.00
C 326.35 506.56 327.14 517.16 328.00 526.00 Z"/>
</g>
<g fill="None" fill-opacity="0.0" stroke="#000000" stroke-opacity="0.38" stroke-width="0.3"><path d="
M 304.00 518.00 
C 303.47 511.93 303.59 505.08 304.00 499.00
C 304.06 498.84 301.25 500.72 302.00 504.00 C 302.75 507.28 302.76 509.71 302.00 513.00 C 301.24 516.29 304.10 518.22 304.00 518.00 Z"/>
</g>
<g fill="None" fill-opacity="0.0" stroke="#000000" stroke-opacity="0.36" stroke-width="0.3"><path d="
M 696.00 526.00 
C 698.12 516.91 700.05 508.53 697.00 499.00
C 697.72 508.05 696.59 517.30 696.00 526.00 Z"/>
</g>
<g fill="None" fill-opacity="0.0" stroke="#000000" stroke-opacity="0.50" stroke-width="0.3"><path d="
M 633.00 620.00 
C 636.38 616.34 639.32 613.28 642.00 609.00
C 639.53 611.27 634.94 616.69 633.00 620.00 Z"/>
</g>
<g fill="None" fill-opacity="0.0" stroke="#000000" stroke-opacity="0.34" stroke-width="0.3"><path d="
M 486.00 681.00 
C 493.62 681.41 501.37 681.00 509.00 681.00
C 507.74 680.68 498.21 677.39 493.00 679.00 C 487.79 680.61 489.46 680.48 486.00 681.00 Z"/>
</g>
<g fill="#000000" fill-opacity="0.00" stroke="None">
<path d="
M 510.00 266.00 
C 515.31 274.39 514.92 286.13 518.00 296.00 C 521.08 305.87 521.64 318.79 534.00 318.00 C 546.36 317.21 553.47 324.46 564.07 325.93 C 574.68 327.40 581.96 333.03 591.08 336.92 C 600.19 340.81 606.92 346.01 614.75 351.25 C 622.58 356.50 629.41 362.17 636.25 368.75 C 643.09 375.33 648.56 381.18 654.75 388.25 C 660.94 395.32 664.85 403.04 669.92 411.08 C 675.00 419.12 679.34 426.95 682.78 436.22 C 686.21 445.50 689.65 454.89 691.98 465.02 C 694.30 475.16 696.15 488.26 697.00 499.00
C 700.05 508.53 698.12 516.91 696.00 526.00
C 691.58 590.97 654.51 645.42 596.92 678.92 C 539.34 712.43 455.71 711.27 398.30 675.70 C 340.90 640.12 309.74 583.21 304.00 518.00
C 304.10 518.22 301.24 516.29 302.00 513.00 C 302.76 509.71 302.75 507.28 302.00 504.00 C 301.25 500.72 304.06 498.84 304.00 499.00
C 304.96 484.83 307.97 467.64 311.33 454.33 C 314.69 441.02 320.77 429.49 326.77 417.77 C 332.77 406.05 339.32 396.56 347.75 386.75 C 356.18 376.95 363.87 369.04 373.70 360.70 C 383.52 352.35 393.75 346.77 404.70 339.70 C 415.64 332.62 428.92 329.06 441.07 324.07 C 453.22 319.09 473.69 322.70 478.00 309.00 C 482.31 295.30 485.44 281.02 489.00 267.00
C 490.00 263.07 493.61 264.00 499.00 264.00 C 504.39 264.00 508.29 263.29 510.00 266.00 Z"/>
</g>
<g fill="#000000" fill-opacity="0.45" stroke="None">
<path d="
M 489.00 267.00 
C 490.81 265.08 507.27 264.60 510.00 266.00
C 508.29 263.29 504.39 264.00 499.00 264.00 C 493.61 264.00 490.00 263.07 489.00 267.00 Z"/>
</g>
<g fill="#000000" fill-opacity="1.00" stroke="None">
<path d="
M 489.00 267.00 
C 485.44 281.02 482.31 295.30 478.00 309.00 C 473.69 322.70 453.22 319.09 441.07 324.07 C 428.92 329.06 415.64 332.62 404.70 339.70 C 393.75 346.77 383.52 352.35 373.70 360.70 C 363.87 369.04 356.18 376.95 347.75 386.75 C 339.32 396.56 332.77 406.05 326.77 417.77 C 320.77 429.49 314.69 441.02 311.33 454.33 C 307.97 467.64 304.96 484.83 304.00 499.00
C 303.59 505.08 303.47 511.93 304.00 518.00
C 309.74 583.21 340.90 640.12 398.30 675.70 C 455.71 711.27 539.34 712.43 596.92 678.92 C 654.51 645.42 691.58 590.97 696.00 526.00
C 696.59 517.30 697.72 508.05 697.00 499.00
C 696.15 488.26 694.30 475.16 691.98 465.02 C 689.65 454.89 686.21 445.50 682.78 436.22 C 679.34 426.95 675.00 419.12 669.92 411.08 C 664.85 403.04 660.94 395.32 654.75 388.25 C 648.56 381.18 643.09 375.33 636.25 368.75 C 629.41 362.17 622.58 356.50 614.75 351.25 C 606.92 346.01 600.19 340.81 591.08 336.92 C 581.96 333.03 574.68 327.40 564.07 325.93 C 553.47 324.46 546.36 317.21 534.00 318.00 C 521.64 318.79 521.08 305.87 518.00 296.00 C 514.92 286.13 515.31 274.39 510.00 266.00
C 507.27 264.60 490.81 265.08 489.00 267.00
M 509.00 681.00 
C 501.37 681.00 493.62 681.41 486.00 681.00
C 474.02 680.35 461.11 677.40 449.98 674.03 C 438.84 670.65 430.15 666.49 419.77 661.23 C 409.39 655.96 418.35 640.81 420.00 630.00 C 421.65 619.19 426.86 607.17 428.93 595.93 C 430.99 584.68 435.10 572.77 437.33 561.33 C 439.56 549.89 444.41 539.25 446.92 527.92 C 449.43 516.59 452.19 504.38 455.00 493.00 C 457.81 481.61 461.49 470.48 463.93 458.93 C 466.36 447.38 469.45 436.07 472.78 424.78 C 476.10 413.49 477.70 401.28 481.00 390.00 C 484.30 378.71 487.18 367.40 489.99 355.99 C 492.80 344.58 495.59 332.51 500.00 322.00
C 516.62 376.52 530.18 433.23 544.78 489.22 C 559.37 545.22 573.34 601.89 588.00 658.00
C 563.55 671.21 537.33 680.54 509.00 681.00
M 328.00 526.00 
C 327.14 517.16 326.35 506.56 327.00 497.00
C 332.14 421.53 394.30 351.25 470.00 341.00
C 445.54 441.87 418.77 542.19 394.00 643.00
C 380.94 636.94 372.31 624.68 362.75 613.25 C 353.18 601.83 345.84 589.26 340.03 574.98 C 334.21 560.69 327.96 542.32 328.00 526.00
M 673.00 494.00 
C 673.92 501.57 674.45 510.71 674.00 519.00
C 672.17 552.78 659.45 581.10 642.00 609.00
C 639.32 613.28 636.38 616.34 633.00 620.00
C 625.83 627.75 623.76 632.58 614.75 639.75 C 605.74 646.93 604.12 629.79 602.07 620.93 C 600.02 612.06 596.10 600.52 594.07 590.93 C 592.04 581.33 588.17 570.90 586.07 560.93 C 583.98 550.95 581.14 540.68 578.22 530.78 C 575.31 520.88 573.45 510.37 570.67 500.33 C 567.90 490.29 565.82 480.12 563.02 469.98 C 560.23 459.83 557.65 450.08 555.22 439.78 C 552.79 429.47 549.87 420.35 547.07 409.93 C 544.27 399.51 542.64 389.40 539.22 378.78 C 535.80 368.15 535.45 359.70 531.68 348.32 C 527.91 336.94 545.60 343.17 553.68 346.32 C 561.75 349.47 573.01 352.36 580.70 357.31 C 588.38 362.25 597.26 365.77 604.23 371.77 C 611.20 377.77 618.40 382.36 624.75 389.25 C 631.11 396.13 636.42 402.47 641.75 410.25 C 647.08 418.02 651.30 425.42 655.92 434.08 C 660.55 442.73 663.51 451.48 666.78 461.22 C 670.05 470.96 671.72 483.39 673.00 494.00 Z"/>
</g>
<g fill="#000000" fill-opacity="0.02" stroke="None">
<path d="
M 486.00 681.00 
C 489.46 680.48 487.79 680.61 493.00 679.00 C 498.21 677.39 507.74 680.68 509.00 681.00
C 537.33 680.54 563.55 671.21 588.00 658.00
C 573.34 601.89 559.37 545.22 544.78 489.22 C 530.18 433.23 516.62 376.52 500.00 322.00
C 495.59 332.51 492.80 344.58 489.99 355.99 C 487.18 367.40 484.30 378.71 481.00 390.00 C 477.70 401.28 476.10 413.49 472.78 424.78 C 469.45 436.07 466.36 447.38 463.93 458.93 C 461.49 470.48 457.81 481.61 455.00 493.00 C 452.19 504.38 449.43 516.59 446.92 527.92 C 444.41 539.25 439.56 549.89 437.33 561.33 C 435.10 572.77 430.99 584.68 428.93 595.93 C 426.86 607.17 421.65 619.19 420.00 630.00 C 418.35 640.81 409.39 655.96 419.77 661.23 C 430.15 666.49 438.84 670.65 449.98 674.03 C 461.11 677.40 474.02 680.35 486.00 681.00 Z"/>
</g>
<g fill="#000000" fill-opacity="0.02" stroke="None">
<path d="
M 327.00 497.00 
C 328.14 504.91 328.91 516.61 328.00 526.00
C 327.96 542.32 334.21 560.69 340.03 574.98 C 345.84 589.26 353.18 601.83 362.75 613.25 C 372.31 624.68 380.94 636.94 394.00 643.00
C 418.77 542.19 445.54 441.87 470.00 341.00
C 394.30 351.25 332.14 421.53 327.00 497.00 Z"/>
</g>
<g fill="#000000" fill-opacity="0.02" stroke="None">
<path d="
M 633.00 620.00 
C 634.94 616.69 639.53 611.27 642.00 609.00
C 659.45 581.10 672.17 552.78 674.00 519.00
C 673.86 519.44 672.60 520.79 672.00 521.00
C 672.66 512.17 670.67 502.01 673.00 494.00
C 671.72 483.39 670.05 470.96 666.78 461.22 C 663.51 451.48 660.55 442.73 655.92 434.08 C 651.30 425.42 647.08 418.02 641.75 410.25 C 636.42 402.47 631.11 396.13 624.75 389.25 C 618.40 382.36 611.20 377.77 604.23 371.77 C 597.26 365.77 588.38 362.25 580.70 357.31 C 573.01 352.36 561.75 349.47 553.68 346.32 C 545.60 343.17 527.91 336.94 531.68 348.32 C 535.45 359.70 535.80 368.15 539.22 378.78 C 542.64 389.40 544.27 399.51 547.07 409.93 C 549.87 420.35 552.79 429.47 555.22 439.78 C 557.65 450.08 560.23 459.83 563.02 469.98 C 565.82 480.12 567.90 490.29 570.67 500.33 C 573.45 510.37 575.31 520.88 578.22 530.78 C 581.14 540.68 583.98 550.95 586.07 560.93 C 588.17 570.90 592.04 581.33 594.07 590.93 C 596.10 600.52 600.02 612.06 602.07 620.93 C 604.12 629.79 605.74 646.93 614.75 639.75 C 623.76 632.58 625.83 627.75 633.00 620.00 Z"/>
</g>
<g fill="#000000" fill-opacity="0.44" stroke="None">
<path d="
M 674.00 519.00 
C 674.45 510.71 673.92 501.57 673.00 494.00
C 670.67 502.01 672.66 512.17 672.00 521.00
C 672.60 520.79 673.86 519.44 674.00 519.00 Z"/>
</g>
<g fill="#000000" fill-opacity="0.36" stroke="None">
<path d="
M 328.00 526.00 
C 328.91 516.61 328.14 504.91 327.00 497.00
C 326.35 506.56 327.14 517.16 328.00 526.00 Z"/>
</g>
<g fill="#000000" fill-opacity="0.38" stroke="None">
<path d="
M 304.00 518.00 
C 303.47 511.93 303.59 505.08 304.00 499.00
C 304.06 498.84 301.25 500.72 302.00 504.00 C 302.75 507.28 302.76 509.71 302.00 513.00 C 301.24 516.29 304.10 518.22 304.00 518.00 Z"/>
</g>
<g fill="#000000" fill-opacity="0.36" stroke="None">
<path d="
M 696.00 526.00 
C 698.12 516.91 700.05 508.53 697.00 499.00
C 697.72 508.05 696.59 517.30 696.00 526.00 Z"/>
</g>
<g fill="#000000" fill-opacity="0.50" stroke="None">
<path d="
M 633.00 620.00 
C 636.38 616.34 639.32 613.28 642.00 609.00
C 639.53 611.27 634.94 616.69 633.00 620.00 Z"/>
</g>
<g fill="#000000" fill-opacity="0.34" stroke="None">
<path d="
M 486.00 681.00 
C 493.62 681.41 501.37 681.00 509.00 681.00
C 507.74 680.68 498.21 677.39 493.00 679.00 C 487.79 680.61 489.46 680.48 486.00 681.00 Z"/>
</g>
</svg>
