<svg width="1334" height="1125" viewBox="0 0 1334 1125" fill="none" xmlns="http://www.w3.org/2000/svg">
<path d="M543.831 1.00586C536.971 7.38586 535.801 20.0159 529.581 27.7559C523.371 35.4959 519.09 43.7059 511.58 50.7559C504.08 57.8159 498.861 65.2059 490.861 71.0359C482.851 76.8559 474.37 80.4559 465.05 85.2259C455.73 90.0059 446.22 92.1659 434.83 94.0059C423.44 95.8459 408.59 94.7159 396.83 95.0059C385.07 95.2959 373.77 95.9359 362.5 95.6759C351.23 95.4159 339.84 95.1559 327.84 94.9959C315.84 94.8459 305.87 94.8559 293.83 94.0059C281.79 93.1559 268.76 92.3859 256.83 92.0059C244.9 91.6259 230.81 91.2059 218.83 91.0059C206.85 90.8059 196.45 90.8459 184.83 91.0059C173.21 91.1659 156.24 90.6359 144.83 92.0059C133.42 93.3759 121.16 95.7259 110.84 99.0159C100.52 102.296 90.7705 105.786 81.8405 111.016C72.9105 116.246 65.5805 120.326 57.5305 126.706C49.4905 133.086 43.6605 139.176 36.5805 146.756C29.5105 154.346 24.8405 161.796 19.6005 170.776C14.3605 179.756 10.7705 189.506 7.83048 200.006C4.89048 210.496 4.74048 223.576 5.50048 234.336C6.26048 245.096 9.09048 258.226 12.8505 267.986C16.6205 277.736 21.7205 286.236 26.9105 294.926C32.1005 303.616 44.1905 314.966 44.5005 301.676C44.8105 288.386 49.2205 282.396 55.9105 273.086C62.6005 263.786 67.8705 258.906 76.7505 252.926C85.6305 246.936 94.9405 244.126 104.75 239.926C114.57 235.726 127.35 234.936 137.58 231.806C147.81 228.676 159.62 228.976 170.76 226.936C181.89 224.886 193.86 223.396 205.61 222.786C217.36 222.166 231.34 220.346 242.75 220.936C254.17 221.526 265.99 217.956 274.83 225.006C262.11 229.606 249.19 233.346 235.85 236.026C222.52 238.716 210.26 244.536 197.9 249.076C185.55 253.626 173.63 258.366 162.06 264.236C150.49 270.106 140.87 276.746 130.06 283.236C119.25 289.726 110.59 296.926 101.08 305.256C91.5605 313.576 82.2305 320.836 74.0805 330.256C65.9305 339.676 59.2805 348.846 51.5805 358.756C43.8905 368.676 36.3605 377.446 31.1605 389.336C25.9605 401.226 22.2105 413.036 16.1405 425.316C10.0605 437.586 9.18048 452.196 5.81048 465.986C2.44048 479.766 -0.50952 496.576 0.83048 512.006C2.17048 527.436 0.800475 545.386 4.84047 559.996C8.87047 574.606 9.22049 589.156 11.9005 603.936C14.5805 618.716 16.6305 631.416 18.8305 646.006C21.0405 660.596 23.7405 674.826 26.5005 689.336C29.2605 703.846 29.2905 720.226 32.0505 734.786C34.8105 749.346 38.0405 764.266 39.8405 778.996C41.6305 793.726 44.2805 808.756 46.8305 823.006C49.3905 837.256 50.7705 851.536 53.0505 865.786C55.3305 880.036 59.0005 894.196 62.0505 907.786C65.1105 921.366 69.1705 934.126 74.5205 946.316C79.8805 958.496 85.1605 968.876 92.0805 979.756C99.0005 990.636 105.5 1000.36 113.58 1010.26C121.67 1020.16 128.58 1028.22 138.08 1036.76C147.58 1045.3 154.91 1053.66 165.58 1060.26C176.25 1066.86 184.83 1074.77 195.75 1081.09C206.68 1087.4 217.24 1093.24 229.15 1098.69C241.06 1104.13 254.58 1107.28 267.8 1111.04C281.02 1114.8 296.4 1118.56 310.83 1120.01C325.26 1121.46 343.09 1124.15 357.83 1124.01C372.56 1123.87 388.48 1122.6 402.82 1120C417.16 1117.41 432.231 1115.73 445.611 1111.79C458.981 1107.84 472.5 1104.85 485.08 1100.26C497.67 1095.68 508.18 1088.65 519.8 1082.98C531.43 1077.31 540.641 1070.36 551.081 1063.26C561.521 1056.16 570.921 1050.35 580.081 1041.26C589.231 1032.16 597.531 1025.83 606.581 1016.76C615.621 1007.68 620.421 998.746 629.911 989.086C639.411 979.436 648.641 997.356 656.581 1005.26C664.531 1013.15 674.471 1022.41 681.911 1029.93C689.361 1037.44 700.741 1045.61 710.081 1052.76C719.421 1059.91 730.47 1067.04 740.75 1073.09C751.04 1079.13 761.851 1086.05 773.611 1091.23C785.361 1096.41 797.711 1101.76 810.761 1105.08C823.801 1108.41 836.71 1113.6 850.81 1116.03C864.9 1118.46 882.061 1120.67 896.831 1122.01C911.601 1123.35 929.111 1123.77 943.831 1122.01C958.551 1120.25 973.931 1117.91 987.761 1114.94C1001.59 1111.97 1014.02 1106.95 1026.76 1102.94C1039.49 1098.92 1049.88 1092.25 1061.14 1086.32C1072.39 1080.38 1084.55 1075.51 1094.08 1067.26C1103.61 1059.01 1113.39 1052.62 1122.53 1044.71C1131.67 1036.8 1139.39 1028.06 1147.58 1018.76C1155.77 1009.47 1162.5 1000.56 1170.08 990.256C1177.66 979.946 1182.14 970.356 1188.06 959.236C1193.98 948.116 1198.61 935.786 1203.05 923.226C1207.5 910.676 1211.03 895.736 1213.83 882.006C1216.63 868.276 1217.48 851.946 1220.9 838.076C1224.33 824.206 1226.34 809.306 1228.9 795.076C1231.46 780.856 1234.69 766.886 1237.52 752.696C1240.35 738.516 1242.71 724.236 1245.83 710.006C1248.96 695.776 1249.8 680.526 1253.05 666.226C1256.3 651.926 1259.51 637.636 1261.83 623.006C1264.16 608.386 1267.08 594.526 1269.9 580.076C1272.73 565.626 1273.75 552.576 1275.5 538.676C1277.25 524.776 1276.99 505.586 1276.18 491.696C1275.37 477.816 1273.25 462.406 1269.76 449.076C1266.26 435.756 1261.08 422.776 1256.61 410.226C1252.13 397.676 1245.98 387.746 1239.13 376.706C1232.29 365.666 1226.21 356.886 1218.08 346.756C1209.94 336.626 1201.8 330.906 1193.58 320.256C1185.35 309.606 1177.07 306.456 1166.08 296.756C1155.08 287.056 1179.35 281.156 1189.75 277.926C1200.16 274.696 1214.78 266.766 1224.75 260.926C1234.73 255.096 1245.78 247.856 1254.58 239.756C1263.38 231.666 1272.92 223.896 1280.08 214.256C1287.23 204.606 1294.62 195.186 1301.53 184.706C1308.43 174.226 1315.29 164.026 1319.91 152.086C1324.53 140.146 1332 127.386 1332.83 114.006C1301.34 138.406 1265.59 163.606 1222.83 161.006C1180.07 158.406 1141.47 137.316 1102.91 123.926C1064.35 110.546 1031.71 92.6159 993.831 78.0059C955.961 63.3959 910.641 47.1259 869.831 51.0059C829.021 54.8859 792.631 72.9659 768.081 106.256C743.541 139.546 737.101 189.126 759.831 224.006C767.371 211.816 771.561 198.646 784.611 190.786C797.651 182.916 812.511 180.096 828.091 179.406C843.671 178.726 864.261 181.526 879.611 184.226C894.961 186.936 912.29 190.146 926.81 195.026C941.32 199.916 957.611 201.666 971.141 207.696C984.661 213.736 1000.21 216.096 1008.83 227.006C988.261 227.106 968.221 221.776 948.501 221.336C928.781 220.896 905.89 219.896 887.9 223.076C869.91 226.256 849.78 229.916 832.91 235.086C816.03 240.246 800.171 246.626 784.911 254.086C769.641 261.546 756.98 270.876 743.06 280.236C729.14 289.606 719.001 299.816 707.581 311.756C696.161 323.696 687.36 336.016 678.75 349.926C670.14 363.836 663.73 379.856 656.75 394.926C649.78 410.006 649.021 432.246 637.831 443.006C633.491 432.136 631.49 418.816 627.76 408.076C624.02 397.346 620.61 386.076 615.75 376.086C610.89 366.086 604.701 356.696 599.601 347.236C594.501 337.776 587.191 330.266 581.081 321.756C574.971 313.246 567.201 306.636 559.531 299.306C551.861 291.986 543.131 285.956 534.581 279.256C526.021 272.566 517.26 267.586 508.08 261.756C498.89 255.926 488.81 251.636 478.84 246.996C468.87 242.366 454.03 241.666 444.53 236.306C435.03 230.946 452.51 219.496 459.13 214.306C465.75 209.126 475.24 200.416 481.58 192.756C487.92 185.096 495.59 176.486 502.06 168.236C508.53 159.986 513.071 149.606 517.911 140.086C522.761 130.566 527.481 119.496 530.911 109.086C534.341 98.6659 538.68 86.8059 539.76 75.0859C540.84 63.3659 542.801 53.4959 543.831 41.0059C544.861 28.5159 545.551 11.8959 543.831 1.00586ZM314.83 294.006C350.95 294.636 383.85 308.846 413.06 332.776C442.27 356.706 457.62 381.126 474.16 415.676C490.7 450.226 497.72 490.456 503.83 530.006C509.94 569.566 516.551 614.486 522.831 655.006C529.111 695.526 536.81 738.956 541.82 780.016C546.83 821.066 545.4 870.596 534.05 908.226C522.71 945.866 507.63 971.726 480.58 998.756C453.54 1025.79 417.43 1043.73 378.83 1041.01C340.23 1038.3 307.45 1022.95 278.75 998.086C250.04 973.236 234 948.066 219.05 913.786C204.11 879.496 195.56 839.846 190.05 800.786C184.54 761.716 175.89 716.826 169.9 676.936C163.92 637.046 158.55 593.546 151.83 553.006C145.11 512.456 148.24 463.526 158.76 425.936C169.27 388.346 184.66 362.546 212.08 335.256C239.49 307.966 275.81 293.316 314.83 294.006ZM981.831 295.006C1015.51 296.416 1046.39 313.226 1071.58 338.256C1096.77 363.286 1111.18 390.816 1121.61 426.226C1132.04 461.646 1134.6 510.546 1127.5 548.676C1120.4 586.806 1113.48 627.186 1105.85 665.026C1098.23 702.876 1092.13 743.026 1083.9 780.076C1075.67 817.136 1070.21 857.456 1057.85 892.026C1045.5 926.606 1033.08 952.236 1008.53 979.706C983.98 1007.17 958.46 1022.06 924.81 1033.99C891.15 1045.91 845.121 1040.94 815.601 1020.24C786.081 999.526 764.971 981.946 748.531 949.316C732.081 916.676 724.75 881.246 722.82 843.996C720.89 806.756 731.441 765.216 736.611 727.786C741.771 690.356 750.51 652.306 757.81 615.986C765.11 579.656 771.81 539.736 779.76 503.936C787.7 468.126 796.871 432.256 813.751 400.926C830.621 369.596 848.32 347.896 877.06 326.236C905.8 304.576 944.461 293.436 981.831 295.006Z" fill="black" stroke="black"/>
</svg>
