<svg width="85" height="100" viewBox="0 0 267 108" fill="none" xmlns="http://www.w3.org/2000/svg">
  <rect x="1.5" y="1.5" width="264" height="105" rx="12.5" stroke="currentColor" stroke-width="3"/>
  <rect x="17" y="17" width="159" height="74" fill="#00CAD7"/>
  <path d="M45.6016 38.4062H54.6543C56.5996 38.4062 58.2578 38.6992 59.6289 39.2852C61 39.8711 62.0488 40.7383 62.7754 41.8867C63.5137 43.0234 63.8828 44.4297 63.8828 46.1055C63.8828 47.3828 63.6484 48.5078 63.1797 49.4805C62.7109 50.4531 62.0488 51.2734 61.1934 51.9414C60.3379 52.5977 59.3184 53.1074 58.1348 53.4707L56.7988 54.1211H48.6602L48.625 50.623H54.7246C55.7793 50.623 56.6582 50.4355 57.3613 50.0605C58.0645 49.6855 58.5918 49.1758 58.9434 48.5312C59.3066 47.875 59.4883 47.1367 59.4883 46.3164C59.4883 45.4258 59.3125 44.6523 58.9609 43.9961C58.6211 43.3281 58.0938 42.8184 57.3789 42.4668C56.6641 42.1035 55.7559 41.9219 54.6543 41.9219H50.0137V64H45.6016V38.4062ZM60.209 64L54.1973 52.5039L58.8203 52.4863L64.9199 63.7715V64H60.209ZM84.7241 41.8164L77.0777 64H72.4546L82.0874 38.4062H85.0405L84.7241 41.8164ZM91.1226 64L83.4585 41.8164L83.1245 38.4062H86.0952L95.7632 64H91.1226ZM90.7534 54.5078V58.0059H76.8316V54.5078H90.7534ZM105.108 38.4062H114.161C116.106 38.4062 117.765 38.6992 119.136 39.2852C120.507 39.8711 121.556 40.7383 122.282 41.8867C123.021 43.0234 123.39 44.4297 123.39 46.1055C123.39 47.3828 123.155 48.5078 122.687 49.4805C122.218 50.4531 121.556 51.2734 120.7 51.9414C119.845 52.5977 118.825 53.1074 117.642 53.4707L116.306 54.1211H108.167L108.132 50.623H114.231C115.286 50.623 116.165 50.4355 116.868 50.0605C117.571 49.6855 118.099 49.1758 118.45 48.5312C118.814 47.875 118.995 47.1367 118.995 46.3164C118.995 45.4258 118.819 44.6523 118.468 43.9961C118.128 43.3281 117.601 42.8184 116.886 42.4668C116.171 42.1035 115.263 41.9219 114.161 41.9219H109.521V64H105.108V38.4062ZM119.716 64L113.704 52.5039L118.327 52.4863L124.427 63.7715V64H119.716ZM151.016 60.502V64H137.428V60.502H151.016ZM138.676 38.4062V64H134.264V38.4062H138.676ZM149.241 49.0938V52.5391H137.428V49.0938H149.241ZM150.928 38.4062V41.9219H137.428V38.4062H150.928Z" fill="white"/>
  <path d="M218.119 38.4062H223.85V55.2109C223.85 57.2031 223.428 58.8789 222.584 60.2383C221.752 61.5977 220.592 62.623 219.104 63.3145C217.615 64.0059 215.893 64.3516 213.936 64.3516C211.967 64.3516 210.232 64.0059 208.732 63.3145C207.244 62.623 206.072 61.5977 205.217 60.2383C204.373 58.8789 203.951 57.2031 203.951 55.2109V38.4062H209.699V55.2109C209.699 56.3125 209.863 57.2148 210.191 57.918C210.531 58.6094 211.018 59.1191 211.65 59.4473C212.283 59.7637 213.045 59.9219 213.936 59.9219C214.826 59.9219 215.582 59.7637 216.203 59.4473C216.836 59.1191 217.311 58.6094 217.627 57.918C217.955 57.2148 218.119 56.3125 218.119 55.2109V38.4062ZM240.525 38.4062V64H234.812V38.4062H240.525Z" fill="currentColor"/>
</svg>