<svg width="38" height="41" viewBox="0 0 38 41" fill="none" xmlns="http://www.w3.org/2000/svg">
<g clip-path="url(#clip0_1529_609)">
<path d="M1.11746 5.59498C7.91825 14.4276 18.2175 34.7635 9.83333 34.8828C7.79762 34.9127 0.574602 29.4072 9.66746 14.4723C13.9802 7.37045 20.9016 4.98326 22.6508 9.14592C26.0135 17.143 13.2865 28.1838 23.8119 34.6889C25.2143 35.5542 26.7675 36.1659 28.3357 36.6434C28.969 36.8373 34.2468 38.3443 34.473 37.8967L38.0016 29.5862C38.0016 29.5862 22.2135 31.9138 26.9183 21.6041C29.1349 16.7402 33.5683 10.2649 29.331 5.14738C13.4825 -13.9203 -14.5349 39.4931 9.10952 40.9851C27.9738 42.1638 12.5325 7.05713 8.55159 0C5.97301 1.70087 3.69603 3.8941 1.11746 5.59498Z" fill="#003566"/>
</g>
<defs>
<clipPath id="clip0_1529_609">
<rect width="38" height="41" fill="white"/>
</clipPath>
</defs>
</svg>
